<?xml version="1.0" standalone="no"?>
<!DOCTYPE svg PUBLIC "-//W3C//DTD SVG 20010904//EN"
 "http://www.w3.org/TR/2001/REC-SVG-20010904/DTD/svg10.dtd">
<svg version="1.0" xmlns="http://www.w3.org/2000/svg"
 width="195.000000pt" height="195.000000pt" viewBox="0 0 195.000000 195.000000"
 preserveAspectRatio="xMidYMid meet">
<metadata>
Created by potrace 1.14, written by Peter Selinger 2001-2017
</metadata>
<g transform="translate(0.000000,195.000000) scale(0.100000,-0.100000)"
fill="#000000" stroke="none">
<path d="M927 1893 c-103 -63 -235 -97 -372 -96 -57 0 -153 11 -165 18 -5 3
-35 -30 -67 -72 -32 -43 -88 -117 -125 -165 -38 -48 -68 -90 -68 -92 0 -3 16
-22 35 -43 91 -98 105 -209 57 -470 -19 -100 -26 -174 -26 -268 l-1 -130 37
-77 c43 -86 131 -176 215 -219 26 -13 50 -27 51 -31 2 -5 9 -8 17 -8 11 0 137
-50 177 -71 10 -5 22 -9 28 -9 16 0 162 -71 215 -105 l51 -32 34 24 c51 36
133 76 240 117 182 71 312 135 303 149 -3 6 -1 7 5 3 16 -10 103 74 143 136
55 86 70 146 65 272 -3 61 -7 122 -10 136 -3 14 -10 50 -16 80 -5 30 -11 64
-14 75 -7 33 -20 158 -19 185 3 109 33 191 91 247 21 21 31 37 26 45 -10 17
-166 222 -173 228 -3 3 -22 26 -41 51 l-34 45 -51 -11 c-27 -7 -93 -11 -145
-10 -138 3 -264 41 -375 114 l-30 20 -58 -36z"/>
</g>
</svg>
